<mxfile host="app.diagrams.net" modified="2021-12-12T07:19:39.667Z" agent="5.0 (Windows NT 10.0; Win64; x64) AppleWebKit/537.36 (KHTML, like Gecko) Chrome/96.0.4664.93 Safari/537.36" etag="MvnQwhGLPqA5dTzI-DOh" version="15.9.4" type="github">
  <diagram name="Page-1" id="b520641d-4fe3-3701-9064-5fc419738815">
    <mxGraphModel dx="1221" dy="681" grid="1" gridSize="10" guides="1" tooltips="1" connect="1" arrows="1" fold="1" page="1" pageScale="1" pageWidth="1100" pageHeight="850" background="none" math="0" shadow="0">
      <root>
        <mxCell id="0" />
        <mxCell id="1" parent="0" />
        <mxCell id="CtXKHTtdVV3hV2YH56bY-38" style="edgeStyle=orthogonalEdgeStyle;rounded=0;orthogonalLoop=1;jettySize=auto;html=1;exitX=1;exitY=0.75;exitDx=0;exitDy=0;entryX=0;entryY=0.75;entryDx=0;entryDy=0;fontSize=12;" edge="1" parent="1" source="21ea969265ad0168-18" target="CtXKHTtdVV3hV2YH56bY-35">
          <mxGeometry relative="1" as="geometry" />
        </mxCell>
        <mxCell id="CtXKHTtdVV3hV2YH56bY-39" value="查询结果" style="edgeLabel;html=1;align=center;verticalAlign=middle;resizable=0;points=[];fontSize=12;" vertex="1" connectable="0" parent="CtXKHTtdVV3hV2YH56bY-38">
          <mxGeometry x="-0.28" relative="1" as="geometry">
            <mxPoint x="8" y="-10" as="offset" />
          </mxGeometry>
        </mxCell>
        <mxCell id="21ea969265ad0168-18" value="3" style="swimlane;html=1;fontStyle=0;childLayout=stackLayout;horizontal=1;startSize=26;fillColor=#e0e0e0;horizontalStack=0;resizeParent=1;resizeLast=0;collapsible=1;marginBottom=0;swimlaneFillColor=#ffffff;align=center;rounded=1;shadow=0;comic=0;labelBackgroundColor=none;strokeWidth=1;fontFamily=Verdana;fontSize=11;" parent="1" vertex="1">
          <mxGeometry x="770" y="285" width="80" height="80" as="geometry" />
        </mxCell>
        <mxCell id="21ea969265ad0168-19" value="&lt;font style=&quot;font-size: 15px&quot;&gt;查询&lt;/font&gt;" style="text;html=1;strokeColor=none;fillColor=none;spacingLeft=4;spacingRight=4;whiteSpace=wrap;overflow=hidden;rotatable=0;points=[[0,0.5],[1,0.5]];portConstraint=eastwest;align=center;" parent="21ea969265ad0168-18" vertex="1">
          <mxGeometry y="26" width="80" height="26" as="geometry" />
        </mxCell>
        <mxCell id="CtXKHTtdVV3hV2YH56bY-22" style="edgeStyle=orthogonalEdgeStyle;rounded=0;orthogonalLoop=1;jettySize=auto;html=1;exitX=0;exitY=0.25;exitDx=0;exitDy=0;entryX=1;entryY=0.696;entryDx=0;entryDy=0;fontSize=12;entryPerimeter=0;" edge="1" parent="1" source="21ea969265ad0168-22" target="CtXKHTtdVV3hV2YH56bY-2">
          <mxGeometry relative="1" as="geometry" />
        </mxCell>
        <mxCell id="CtXKHTtdVV3hV2YH56bY-23" value="车票" style="edgeLabel;html=1;align=center;verticalAlign=middle;resizable=0;points=[];fontSize=12;" vertex="1" connectable="0" parent="CtXKHTtdVV3hV2YH56bY-22">
          <mxGeometry x="0.239" y="2" relative="1" as="geometry">
            <mxPoint x="22" y="2" as="offset" />
          </mxGeometry>
        </mxCell>
        <mxCell id="21ea969265ad0168-22" value="2" style="swimlane;html=1;fontStyle=0;childLayout=stackLayout;horizontal=1;startSize=26;fillColor=#e0e0e0;horizontalStack=0;resizeParent=1;resizeLast=0;collapsible=1;marginBottom=0;swimlaneFillColor=#ffffff;align=center;rounded=1;shadow=0;comic=0;labelBackgroundColor=none;strokeWidth=1;fontFamily=Verdana;fontSize=12" parent="1" vertex="1">
          <mxGeometry x="410" y="510" width="80" height="80" as="geometry" />
        </mxCell>
        <mxCell id="21ea969265ad0168-23" value="&lt;font style=&quot;font-size: 15px&quot;&gt;取票&lt;/font&gt;" style="text;html=1;strokeColor=none;fillColor=none;spacingLeft=4;spacingRight=4;whiteSpace=wrap;overflow=hidden;rotatable=0;points=[[0,0.5],[1,0.5]];portConstraint=eastwest;align=center;" parent="21ea969265ad0168-22" vertex="1">
          <mxGeometry y="26" width="80" height="26" as="geometry" />
        </mxCell>
        <mxCell id="CtXKHTtdVV3hV2YH56bY-9" style="rounded=0;orthogonalLoop=1;jettySize=auto;html=1;exitX=0.25;exitY=1;exitDx=0;exitDy=0;fontSize=11;entryX=0.5;entryY=0;entryDx=0;entryDy=0;" edge="1" parent="1" source="21ea969265ad0168-26" target="CtXKHTtdVV3hV2YH56bY-5">
          <mxGeometry relative="1" as="geometry">
            <mxPoint x="360" y="290" as="targetPoint" />
          </mxGeometry>
        </mxCell>
        <mxCell id="CtXKHTtdVV3hV2YH56bY-25" style="edgeStyle=orthogonalEdgeStyle;rounded=0;orthogonalLoop=1;jettySize=auto;html=1;exitX=0;exitY=0.75;exitDx=0;exitDy=0;entryX=1.005;entryY=0.301;entryDx=0;entryDy=0;entryPerimeter=0;fontSize=12;" edge="1" parent="1" source="21ea969265ad0168-26" target="CtXKHTtdVV3hV2YH56bY-2">
          <mxGeometry relative="1" as="geometry">
            <Array as="points">
              <mxPoint x="300" y="160" />
              <mxPoint x="300" y="311" />
            </Array>
          </mxGeometry>
        </mxCell>
        <mxCell id="CtXKHTtdVV3hV2YH56bY-26" value="取票单" style="edgeLabel;html=1;align=center;verticalAlign=middle;resizable=0;points=[];fontSize=12;" vertex="1" connectable="0" parent="CtXKHTtdVV3hV2YH56bY-25">
          <mxGeometry x="0.0607" y="-1" relative="1" as="geometry">
            <mxPoint x="21" y="-5" as="offset" />
          </mxGeometry>
        </mxCell>
        <mxCell id="21ea969265ad0168-26" value="1" style="swimlane;html=1;fontStyle=0;childLayout=stackLayout;horizontal=1;startSize=26;fillColor=#e0e0e0;horizontalStack=0;resizeParent=1;resizeLast=0;collapsible=1;marginBottom=0;swimlaneFillColor=#ffffff;align=center;rounded=1;shadow=0;comic=0;labelBackgroundColor=none;strokeWidth=1;fontFamily=Verdana;fontSize=12" parent="1" vertex="1">
          <mxGeometry x="410" y="100" width="80" height="80" as="geometry" />
        </mxCell>
        <mxCell id="21ea969265ad0168-27" value="&lt;font style=&quot;font-size: 15px&quot;&gt;订票&lt;/font&gt;" style="text;html=1;strokeColor=none;fillColor=none;spacingLeft=4;spacingRight=4;whiteSpace=wrap;overflow=hidden;rotatable=0;points=[[0,0.5],[1,0.5]];portConstraint=eastwest;align=center;" parent="21ea969265ad0168-26" vertex="1">
          <mxGeometry y="26" width="80" height="26" as="geometry" />
        </mxCell>
        <mxCell id="CtXKHTtdVV3hV2YH56bY-28" style="edgeStyle=orthogonalEdgeStyle;rounded=0;orthogonalLoop=1;jettySize=auto;html=1;entryX=0;entryY=0.75;entryDx=0;entryDy=0;fontSize=12;exitX=1;exitY=0.849;exitDx=0;exitDy=0;exitPerimeter=0;" edge="1" parent="1" source="CtXKHTtdVV3hV2YH56bY-2" target="21ea969265ad0168-22">
          <mxGeometry relative="1" as="geometry">
            <mxPoint x="270" y="420" as="sourcePoint" />
            <Array as="points">
              <mxPoint x="300" y="404" />
              <mxPoint x="300" y="570" />
            </Array>
          </mxGeometry>
        </mxCell>
        <mxCell id="CtXKHTtdVV3hV2YH56bY-29" value="取票单" style="edgeLabel;html=1;align=center;verticalAlign=middle;resizable=0;points=[];fontSize=12;" vertex="1" connectable="0" parent="CtXKHTtdVV3hV2YH56bY-28">
          <mxGeometry x="-0.4837" y="-3" relative="1" as="geometry">
            <mxPoint x="-17" y="22" as="offset" />
          </mxGeometry>
        </mxCell>
        <mxCell id="CtXKHTtdVV3hV2YH56bY-2" value="顾客" style="html=1;dashed=0;whitespace=wrap;fontSize=15;" vertex="1" parent="1">
          <mxGeometry x="190" y="260" width="60" height="170" as="geometry" />
        </mxCell>
        <mxCell id="CtXKHTtdVV3hV2YH56bY-4" value="&lt;font style=&quot;font-size: 12px&quot;&gt;订票单&lt;/font&gt;" style="endArrow=classic;html=1;rounded=0;fontSize=15;exitX=1;exitY=0.147;exitDx=0;exitDy=0;entryX=0;entryY=0.25;entryDx=0;entryDy=0;edgeStyle=elbowEdgeStyle;exitPerimeter=0;" edge="1" parent="1" source="CtXKHTtdVV3hV2YH56bY-2" target="21ea969265ad0168-26">
          <mxGeometry x="0.0122" y="25" width="50" height="50" relative="1" as="geometry">
            <mxPoint x="310" y="302.5" as="sourcePoint" />
            <mxPoint x="420" y="200" as="targetPoint" />
            <Array as="points">
              <mxPoint x="280" y="170" />
            </Array>
            <mxPoint as="offset" />
          </mxGeometry>
        </mxCell>
        <mxCell id="CtXKHTtdVV3hV2YH56bY-10" style="edgeStyle=none;rounded=0;orthogonalLoop=1;jettySize=auto;html=1;exitX=0.5;exitY=1;exitDx=0;exitDy=0;entryX=0.25;entryY=0;entryDx=0;entryDy=0;fontSize=11;" edge="1" parent="1" source="CtXKHTtdVV3hV2YH56bY-5" target="21ea969265ad0168-22">
          <mxGeometry relative="1" as="geometry" />
        </mxCell>
        <mxCell id="CtXKHTtdVV3hV2YH56bY-5" value="&lt;font style=&quot;font-size: 11px&quot;&gt;D1&amp;nbsp; &amp;nbsp; 顾客信息表&lt;/font&gt;" style="html=1;dashed=0;whitespace=wrap;shape=mxgraph.dfd.dataStoreID;align=left;spacingLeft=3;points=[[0,0],[0.5,0],[1,0],[0,0.5],[1,0.5],[0,1],[0.5,1],[1,1]];fontSize=15;" vertex="1" parent="1">
          <mxGeometry x="310" y="310" width="100" height="30" as="geometry" />
        </mxCell>
        <mxCell id="CtXKHTtdVV3hV2YH56bY-11" style="edgeStyle=none;rounded=0;orthogonalLoop=1;jettySize=auto;html=1;exitX=0.5;exitY=0;exitDx=0;exitDy=0;entryX=0.75;entryY=1;entryDx=0;entryDy=0;fontSize=11;" edge="1" parent="1" source="CtXKHTtdVV3hV2YH56bY-8" target="21ea969265ad0168-26">
          <mxGeometry relative="1" as="geometry" />
        </mxCell>
        <mxCell id="CtXKHTtdVV3hV2YH56bY-12" style="edgeStyle=none;rounded=0;orthogonalLoop=1;jettySize=auto;html=1;exitX=0.5;exitY=1;exitDx=0;exitDy=0;entryX=0.75;entryY=0;entryDx=0;entryDy=0;fontSize=11;" edge="1" parent="1" source="CtXKHTtdVV3hV2YH56bY-8" target="21ea969265ad0168-22">
          <mxGeometry relative="1" as="geometry" />
        </mxCell>
        <mxCell id="CtXKHTtdVV3hV2YH56bY-8" value="&lt;font style=&quot;font-size: 12px&quot;&gt;D2&amp;nbsp; &amp;nbsp; 列车时刻表&lt;/font&gt;" style="html=1;dashed=0;whitespace=wrap;shape=mxgraph.dfd.dataStoreID;align=left;spacingLeft=3;points=[[0,0],[0.5,0],[1,0],[0,0.5],[1,0.5],[0,1],[0.5,1],[1,1]];fontSize=15;" vertex="1" parent="1">
          <mxGeometry x="440" y="310" width="100" height="30" as="geometry" />
        </mxCell>
        <mxCell id="CtXKHTtdVV3hV2YH56bY-13" value="D3&amp;nbsp; &amp;nbsp; &amp;nbsp;订票信息表" style="html=1;dashed=0;whitespace=wrap;shape=mxgraph.dfd.dataStoreID;align=left;spacingLeft=3;points=[[0,0],[0.5,0],[1,0],[0,0.5],[1,0.5],[0,1],[0.5,1],[1,1]];fontSize=11;" vertex="1" parent="1">
          <mxGeometry x="570" y="310" width="100" height="30" as="geometry" />
        </mxCell>
        <mxCell id="CtXKHTtdVV3hV2YH56bY-15" value="" style="endArrow=classic;startArrow=classic;html=1;rounded=0;fontSize=12;entryX=0.5;entryY=0;entryDx=0;entryDy=0;exitX=1;exitY=0.5;exitDx=0;exitDy=0;" edge="1" parent="1" source="21ea969265ad0168-27" target="CtXKHTtdVV3hV2YH56bY-13">
          <mxGeometry width="50" height="50" relative="1" as="geometry">
            <mxPoint x="580" y="230" as="sourcePoint" />
            <mxPoint x="630" y="180" as="targetPoint" />
          </mxGeometry>
        </mxCell>
        <mxCell id="CtXKHTtdVV3hV2YH56bY-16" value="" style="endArrow=classic;startArrow=classic;html=1;rounded=0;fontSize=12;entryX=0.5;entryY=1;entryDx=0;entryDy=0;exitX=1;exitY=0.5;exitDx=0;exitDy=0;" edge="1" parent="1" source="21ea969265ad0168-23" target="CtXKHTtdVV3hV2YH56bY-13">
          <mxGeometry width="50" height="50" relative="1" as="geometry">
            <mxPoint x="570" y="390" as="sourcePoint" />
            <mxPoint x="620" y="340" as="targetPoint" />
          </mxGeometry>
        </mxCell>
        <mxCell id="CtXKHTtdVV3hV2YH56bY-33" style="edgeStyle=orthogonalEdgeStyle;rounded=0;orthogonalLoop=1;jettySize=auto;html=1;fontSize=12;exitX=1;exitY=0.5;exitDx=0;exitDy=0;" edge="1" parent="1" source="CtXKHTtdVV3hV2YH56bY-13" target="21ea969265ad0168-18">
          <mxGeometry relative="1" as="geometry" />
        </mxCell>
        <mxCell id="CtXKHTtdVV3hV2YH56bY-36" style="edgeStyle=orthogonalEdgeStyle;rounded=0;orthogonalLoop=1;jettySize=auto;html=1;exitX=0;exitY=0.25;exitDx=0;exitDy=0;entryX=1;entryY=0.25;entryDx=0;entryDy=0;fontSize=12;" edge="1" parent="1" source="CtXKHTtdVV3hV2YH56bY-35" target="21ea969265ad0168-18">
          <mxGeometry relative="1" as="geometry" />
        </mxCell>
        <mxCell id="CtXKHTtdVV3hV2YH56bY-37" value="查询请求" style="edgeLabel;html=1;align=center;verticalAlign=middle;resizable=0;points=[];fontSize=12;" vertex="1" connectable="0" parent="CtXKHTtdVV3hV2YH56bY-36">
          <mxGeometry x="0.2222" y="1" relative="1" as="geometry">
            <mxPoint x="5" y="-12" as="offset" />
          </mxGeometry>
        </mxCell>
        <mxCell id="CtXKHTtdVV3hV2YH56bY-35" value="售票员" style="html=1;dashed=0;whitespace=wrap;fontSize=12;" vertex="1" parent="1">
          <mxGeometry x="940" y="285" width="100" height="80" as="geometry" />
        </mxCell>
      </root>
    </mxGraphModel>
  </diagram>
</mxfile>
